<svg version="1.2" xmlns="http://www.w3.org/2000/svg" viewBox="0 0 220 140" width="220" height="140">
	<title>bild-2-svg</title>
	<style>
		.s0 { fill: #000000 } 
	</style>
	<g id="Layer">
		<path id="Layer" class="s0" d="m167.5 3.8c6 5.1 9.6 12.7 9.6 20.6 0 3.4-0.6 4-3.4 3.9-1.8-0.1-2.1 0-5.4 2-2.3 1.5-3.7 2.1-4.5 2.1-1.5 0-1.9 0.3-4.2 3-0.9 1.2-1.9 2.4-2.2 2.7-0.4 0.5-0.6 0.4-1.7-0.6l-1.2-1.1-1.8 0.7c-1 0.4-2.1 0.9-2.5 1.1-0.3 0.2-1.2 0.2-1.9 0.1-1-0.2-1.6-0.1-2.8 0.7-0.9 0.5-2 0.9-2.6 0.9-1.1 0.1-1.4-0.2-3.2-2.6-1.2-1.7-2.2-2.8-2.7-2.8-1.1-0.2-3.5 0.5-3.5 1-0.1 0.3-0.3 2.7-0.5 5.5-0.5 4.8-0.5 5 0.3 8.1 2.2 7.8 2.7 14 1.9 20.6-0.3 2.4-0.7 4.9-0.9 5.4l-0.2 1.1h2.2c4.6 0 11.5-1.3 19.8-3.7 2-0.6 5.3-1.2 7.5-1.5 2.8-0.3 4.2-0.6 4.7-1 0.7-0.5 1.4-0.8 5-1.4 0.9-0.2 1.9 0.1 4.2 1.1 1.6 0.7 3 1.1 3.2 1 0.1-0.1-0.1-0.8-0.5-1.5-0.6-1.4-0.6-1.4 0.1-2.2 0.4-0.4 4.1-4.2 8.1-8.4 4.1-4.2 7.6-7.7 7.8-7.7 0.2 0 1.4 2.1 2.8 4.5l2.4 4.5-7.8 9.6c-4.3 5.3-7.8 9.6-7.9 9.7 0 0-0.3 0-0.6-0.1-0.3-0.1-1.1-1.4-1.7-2.9-1.1-2.3-1.4-2.7-2.2-2.7-0.4 0-2-0.4-3.4-1-2.5-1-5.1-1.3-5.1-0.6 0 0.2-0.3 0.7-0.6 1-0.6 0.6-0.6 0.7 0.2 1.7 1.1 1.3 1.1 2.4 0.1 2.8-0.5 0.2-0.8 0.7-0.9 1.3 0 0.8-0.6 1.4-2.5 2.7-1.3 0.9-2.6 2.1-3 2.6-0.7 1.2-1.1 1.2-5.4 0.5-3-0.5-3-0.5-4.6 0.3-2 1.1-2.6 1.1-3.9-0.1-0.6-0.6-1.2-1-1.3-1-0.1 0-2.9 1.1-6.1 2.5-3.2 1.3-7.6 2.9-9.8 3.5-2.1 0.6-4 1.4-4.3 1.7-0.6 0.7-0.6 5 0.2 10.7 0.6 4.6 0.6 5.2 0 10.5-0.4 3.1-1 7.7-1.4 10.1-0.5 2.7-0.7 4.6-0.5 4.8 0.2 0.2 2.7 1.1 5.7 2.2 14.7 5.3 13.9 5 13.8 5.7-0.2 1.2-1.6 1.6-5.1 1.4-3-0.2-3.2-0.2-4.1 0.6-1.2 1.2-2.4 1.1-6.2-0.1-1.9-0.7-4.3-1.2-6.5-1.4-2.3-0.2-3.8-0.5-4.4-0.9-1-0.7-1-0.9-0.6-5.5 0.3-2.4 0.2-2.8-2.1-10.2-1.3-4.2-2.4-8-2.4-8.4 0-1-3.3-15.8-3.5-16-0.1-0.1-1.8 0.1-3.8 0.5-2.9 0.6-3.8 0.7-4.4 0.4-0.9-0.4-2.5-2.7-3.4-5.1-0.7-1.8-0.7-1.9 0.2-11.3 0.5-5.1 0.9-9.8 0.9-10.3v-0.9l-8.1 2.4c-4.5 1.3-8.5 2.6-8.9 2.9-0.3 0.3-1 1.3-1.5 2.1l-0.9 1.6 2.6 2.3c6.9 6.2 19.4 22 23.2 29.4 2 3.8 2.2 6 0.8 8.6-1 1.9-3.1 3.7-5.4 4.6-0.9 0.4-0.9 0.5-0.6 1.5 0.6 2 0.4 3.7-0.8 5.4-1.6 2.1-5.1 5-7.4 6.1-5.9 2.6-11.1 2.5-20.8-0.5l-4.6-1.3-17.1-1.3c-9.4-0.6-17.4-1.3-17.9-1.4-1.3-0.6-1.8-2.3-2.4-8.9-0.9-9.6-0.9-9.7-1.5-9.7-0.3 0-0.8 0.4-1.1 1-0.8 1.4-1.7 1.8-4 1.5-1.9-0.2-2-0.2-3.6 1.2-2.4 2-2.9 3.1-2.8 6.8 0.1 3.6-0.3 4.5-1.8 4.8-1.4 0.3-2.9-0.4-4.9-2.2l-1.5-1.5 0.3 1.7c0.6 3.7 0.2 4.2-4 4.5-2 0.1-2.4 0.1-3.4-0.7-2.5-2-4.7-7.1-4.7-11.4 0-4.6 1.7-7.9 6.4-12.5 2.2-2.2 2.3-2.3 2.6-4.7 0.5-3.9 1.9-6.1 6.7-10.7 3-2.9 4.3-4.4 4.8-5.6 0.3-0.8 1-2 1.6-2.6 1-1.2 1.6-1.1 4 0.4 0.9 0.5 1.6 1 1.7 1 0 0-0.1-1-0.2-2.3-0.2-1.3-0.4-4.3-0.4-6.7 0-4.2 0-4.5 1.5-9 0.8-2.5 2-5.5 2.6-6.5 2.5-4.1 8.1-11.5 9.8-13 1-0.9 4.3-2.9 7.5-4.6 3.1-1.6 8.4-4.4 11.7-6.2 3.3-1.8 8.4-4.4 11.4-5.8 2.9-1.3 8.5-4.2 12.4-6.3 4-2.1 9.9-5.1 13.2-6.6 5.4-2.6 6.2-2.9 9.3-3.4 6.5-0.9 12.3-0.4 16.8 1.4 1.9 0.8 2.8 1 4.7 0.9 2.2-0.1 2.5 0 3.2 0.9l0.8 0.9 1-0.7c0.6-0.4 1.5-1.1 2-1.6 0.8-0.8 0.8-0.9 0.2-1.4-0.8-0.8-0.3-1.5 2.9-3.9 5.7-4.3 12.1-7.8 15.7-8.6 4.5-1.1 9.5 0.2 13.4 3.3z"/>
		<path id="Layer" class="s0" d="m218.5 122.9c0.4-0.1 0.8 0 0.7 0.2 0 0.2-3.8 3.8-8.4 8.1l-8.3 7.7-24.3 0.3c-13.4 0.1-24.3 0.1-24.2 0 0.1-0.1 4.8-3.7 10.4-8.1l10.3-8 21.5-0.1c11.8 0 21.8-0.1 22.3-0.1z"/>
	</g>
</svg>