<svg version="1.2" xmlns="http://www.w3.org/2000/svg" viewBox="0 0 220 140" width="220" height="140">
	<title>bild-3-svg</title>
	<style>
		.s0 { fill: #000000 } 
	</style>
	<g id="Layer">
		<path id="Layer" fill-rule="evenodd" class="s0" d="m74.4 7.4c13.6 2.3 20.4 11.7 14.3 19.6-2.7 3.5-8.1 6.3-14 7.3-2.2 0.4-6.6 0.5-9 0.3-2.4-0.2-5.7-1-7.8-1.8-3.7-1.4-7.4-4.1-8.9-6.6-1.4-2.1-1.5-2.7-1.5-5.4 0-2.3 0-2.6 0.6-3.7 2.5-5.2 8.9-8.9 17.3-9.9 2.2-0.2 6.8-0.1 9 0.2zm-8.3 4c-5.1 0.6-9.9 3.3-11.5 6.5-1.7 3.6-0.4 7.1 3.8 9.8 1.5 1 2.3 1.3 3.8 1.8 2.5 0.8 4.3 1 6.9 1 2.5 0 4.5-0.3 6.8-1 7.4-2.3 10.5-8 7-12.7-2-2.6-5.9-4.7-10.3-5.3-1.5-0.3-5-0.3-6.5-0.1z"/>
		<path id="Layer" fill-rule="evenodd" class="s0" d="m104.1 28.6c0.4 0.1 8.6 2.2 18.2 4.8 59.1 15.8 69.8 18.7 71 19 0.7 0.2 1.6 0.6 1.9 0.8 1.2 0.9 1.1 1.2-2.6 6.8-10.1 15.3-26.5 40-35.5 53.4-5.6 8.5-10.2 15.5-10.3 15.7-0.1 0.2 0.6 0.2 13.2 0.2 12.7 0 13.5 0 14.3 0.3 1.4 0.4 1.9 1 1.8 2-0.1 0.9-0.5 1.3-1.7 1.7-0.9 0.3-146.2 0.3-147.1 0-1.2-0.4-1.7-0.8-1.8-1.7-0.1-1 0.4-1.6 1.8-2 0.9-0.3 1.5-0.3 8-0.3h7v-7.4c0-4.9 0.1-7.6 0.2-8 0.8-1.8 4.7-2.1 6.1-0.5 0.3 0.4 0.3 1.6 0.3 8.2v7.7h16.8v-8l-0.1-7.9-7.3-2c-4-1-7.5-2.1-7.8-2.2-0.7-0.4-1.1-1-1.1-1.5 0-0.4 2.1-3.7 15.2-23.5 1.3-2 6.5-9.8 11.6-17.4 5-7.7 10.9-16.5 13-19.6 2.1-3.1 3.8-5.7 3.8-5.8 0-0.1-0.6-0.3-1.3-0.4-1-0.1-5.8-0.2-22.8-0.2h-21.4l-1.8 0.4c-6.5 1.2-11.4 4.3-13.2 8.5-0.5 1.1-0.5 1.2-0.6 13.4l-0.1 12.4h10.6v-10c0-9.7 0-9.9 0.4-10.4 1-1 3.1-1.3 4.6-0.7 1.6 0.6 1.5-1.4 1.5 24.7l-0.1 23.4-0.8 0.5c-0.7 0.4-1 0.5-2 0.6-1.4 0.1-2.4-0.2-3.1-1l-0.5-0.5v-14.8h-7.1c-4.6 0-7.4-0.1-7.8-0.2-0.8-0.1-1.6-0.6-1.8-1.1-0.2-0.2-0.2-7.4-0.2-17.8 0-14.9 0-17.6 0.3-18.5 1.2-4.2 5.1-8 10.6-10.3 2.8-1.2 5.3-1.9 8.8-2.5 1.8-0.3 2.4-0.3 22.7-0.3 18.1-0.1 21.3 0 23.3 0.2 1.3 0.1 2.8 0.3 3.4 0.4 0.6 0.1 1.1 0.2 1.1 0.2 0-0.1 1.2-1.8 2.6-3.9 2.6-4 3.1-4.6 4.5-4.8 0.4-0.1 1-0.1 1.3-0.1zm1.4 4.9c0 0-2.8 4.1-6.2 9.3-3.4 5.1-8.4 12.5-11 16.5-24.6 37-31 46.8-31.1 47 0 0.2 0.4 0.4 1.5 0.7 0.7 0.2 8.4 2.2 16.9 4.5 21 5.6 54.1 14.5 59.6 16 2.6 0.7 4.6 1.1 4.7 1 0.1 0 10.5-15.6 23.1-34.6 27.2-41 25.4-38.3 25.3-38.3 0 0-4.4-1.2-9.7-2.6-5.3-1.4-14.4-3.9-20.2-5.4-5.9-1.6-20.1-5.4-31.7-8.5-11.6-3.1-21.1-5.6-21.2-5.6zm-63.2 46.2h-10.4v3.4h10.5v-0.4c-0.1-0.2-0.1-1-0.1-1.7zm30.2 35.6c0 0-0.1 3.1-0.1 7v7h16.8l0.1-2c0-2.2 0.2-2.4 1.5-3.1 1.4-0.7 3.7-0.3 4.6 0.7 0.4 0.5 0.5 0.8 0.5 2.5v1.9h14.5c8 0 14.5 0 14.4 0-0.1-0.1-16.8-4.6-43.2-11.6-4.9-1.4-9-2.4-9.1-2.4z"/>
		<path id="Layer" fill-rule="evenodd" class="s0" d="m110.3 39.7c0.4 0.1 11.6 3 24.8 6.6 13.3 3.5 28 7.5 32.8 8.7 4.7 1.3 9 2.4 9.4 2.6 1 0.3 1.8 1.1 1.8 1.8 0 0.6 0.8-0.7-30.4 46.3-5.6 8.5-10.3 15.6-10.5 15.8-0.5 0.5-1.7 0.9-2.7 0.9-0.4 0-8.1-2-20.5-5.3-10.8-2.9-25.8-6.9-33.3-8.9-7.5-2-13.8-3.7-14.1-3.8-0.8-0.3-1.2-0.8-1.4-1.5-0.1-0.5 2.1-3.8 20.4-31.3 11.2-17 20.6-31 20.8-31.2 0.3-0.2 0.9-0.4 1.4-0.6 0.5 0 1.2-0.1 1.5-0.1zm1.6 4.9c-0.3-0.1-17.9 26.4-17.7 26.5 0.3 0.2 26.7 7.2 26.7 7.2 0.1-0.1 4-6 8.9-13.3 8.6-12.9 8.7-13.2 8.2-13.4-0.2-0.1-6.2-1.7-13.2-3.5-7-1.9-12.8-3.5-12.9-3.5zm32.8 8.8c-0.1 0-17.5 26.2-17.5 26.4 0 0.1 5.2 1.6 13.3 3.8 7.4 1.9 13.4 3.5 13.4 3.5 0.1 0 2.6-3.9 5.8-8.7 3.1-4.7 7.1-10.7 8.8-13.2 1.6-2.5 2.9-4.6 2.9-4.6-0.1-0.1-6.1-1.7-13.4-3.7-7.3-1.9-13.3-3.5-13.3-3.5zm-53.1 21.7c-0.1 0-0.4 0.2-0.6 0.6-6.9 10.3-17.1 25.8-17 25.9 0.1 0.1 26.2 7.1 26.5 7.1 0.1 0 1.7-2.2 3.5-5 9.9-14.8 14.2-21.3 14.2-21.4 0-0.1-6-1.8-13.2-3.7-7.3-2-13.3-3.5-13.4-3.5zm33 8.7c-0.1 0-1 1.3-2.1 2.8-1 1.6-4.9 7.5-8.7 13.2-3.8 5.7-6.9 10.5-6.9 10.5 0 0.1 26.3 7.2 26.7 7.2 0.2 0 17.2-25.5 17.5-26.2 0.1-0.3-0.1-0.4-1-0.6-0.5-0.2-6.5-1.8-13.2-3.6-6.7-1.8-12.2-3.2-12.3-3.3z"/>
	</g>
</svg>