<svg version="1.2" xmlns="http://www.w3.org/2000/svg" viewBox="0 0 220 140" width="220" height="140">
	<title>bild-1-svg</title>
	<style>
		.s0 { fill: #000000 } 
	</style>
	<g id="surface1">
		<path id="Layer" fill-rule="evenodd" class="s0" d="m114.6 36.7c1.6 0.4 3.9 1.9 4.7 2.9 1.2 1.7 1.3 2.7 0.5 7.3-1.3 7.2-4.2 22.4-4.4 22.8-0.1 0.1-1.4 0.2-5.4 0.2h-5.2l-0.2-0.4c-0.3-1-4-20.7-4.6-24.7-0.5-2.8-0.3-3.8 0.8-5.2 1.3-1.6 3.9-2.9 6.6-3.4 2.3-0.4 4.9-0.2 7.2 0.5zm-4.6 3.4c-3.2 0.1-5.1 2.3-3.5 4 2.1 2.2 7.3 1.4 7.6-1.2 0.2-1.2-1.1-2.4-3-2.7-0.4-0.1-0.9-0.1-1.1-0.1z"/>
		<path id="Layer" class="s0" d="m110.1 71.1h10v3l-0.1 3h-20l-0.1-2.8c0-1.6 0-2.9 0.1-3 0.1-0.1 2.2-0.2 10.1-0.2z"/>
		<path id="Layer" class="s0" d="m98.8 78.4h22.4l1.3 1.1c5.5 4.9 9.9 11.4 12.9 19 0.8 2 1.7 4.8 1.7 5.3 0 0.2-0.4 0.2-27.2 0.2h-27.2l0.2-0.5c2.5-9.2 8.1-18.4 14.6-24z"/>
	</g>
</svg>